<svg width="18" height="20" viewBox="0 0 18 20" fill="none" xmlns="http://www.w3.org/2000/svg">
<path fill-rule="evenodd" clip-rule="evenodd" d="M16.6073 6.71062C15.5763 5.42587 14.1298 4.68262 12.7643 4.68262C10.9578 4.68262 10.1945 5.54087 8.94128 5.54087C7.64953 5.54087 6.66728 4.68387 5.10478 4.68387C3.57003 4.68387 1.93828 5.61612 0.903784 7.20937C-0.551966 9.44987 -0.305466 13.6654 2.05503 17.2576C2.89928 18.5421 4.02678 19.9866 5.50103 20.0004C6.81129 20.0124 7.18203 19.1646 8.95978 19.1546C10.7378 19.1449 11.074 20.0096 12.384 19.9974C13.8583 19.9834 15.0478 18.3839 15.8915 17.0991C16.4963 16.1789 16.7215 15.7139 17.1913 14.6736C13.7785 13.3841 13.2298 8.56187 16.6073 6.71062Z" fill="#000"/>
<path fill-rule="evenodd" clip-rule="evenodd" d="M11.394 3.247C12.0503 2.405 12.5488 1.2155 12.3678 0C11.2958 0.074 10.0418 0.75575 9.3098 1.645C8.6453 2.452 8.09655 3.64875 8.31005 4.812C9.4803 4.84825 10.6913 4.149 11.394 3.247Z" fill="#000"/>
</svg>
