<svg width="17" height="12" viewBox="0 0 17 12" fill="none" xmlns="http://www.w3.org/2000/svg">
<path d="M1.07513 1.3C0.981044 1.41597 0.906326 1.55379 0.855257 1.70558C0.804187 1.85736 0.777769 2.02012 0.777515 2.18454C0.777261 2.34896 0.803176 2.5118 0.853776 2.66374C0.904376 2.81568 0.978667 2.95374 1.07239 3.07L7.84369 11.4905C7.91818 11.5833 8.00671 11.657 8.10422 11.7073C8.20174 11.7576 8.30631 11.7836 8.41196 11.7838C8.51761 11.784 8.62227 11.7583 8.71993 11.7083C8.8176 11.6582 8.90636 11.5848 8.98113 11.4922L15.7784 3.09273C16.1745 2.60334 16.1757 1.81334 15.7812 1.32273C15.3866 0.832122 14.7494 0.831137 14.3533 1.32053L8.42084 8.65136L2.50299 1.29221C2.10846 0.811597 1.47117 0.810612 1.07513 1.3Z" fill="#000"/>
</svg>
