<svg width="20" height="20" viewBox="0 0 20 20" fill="none" xmlns="http://www.w3.org/2000/svg">
<path d="M13.5676 8.93362C13.6258 8.99167 13.6719 9.06064 13.7034 9.13657C13.735 9.21251 13.7512 9.29391 13.7512 9.37612C13.7512 9.45833 13.735 9.53973 13.7034 9.61566C13.6719 9.69159 13.6258 9.76056 13.5676 9.81862L9.81756 13.5686C9.7595 13.6268 9.69053 13.673 9.6146 13.7045C9.53867 13.736 9.45727 13.7522 9.37506 13.7522C9.29285 13.7522 9.21145 13.736 9.13551 13.7045C9.05958 13.673 8.99061 13.6268 8.93256 13.5686L7.05756 11.6936C6.99945 11.6355 6.95335 11.5665 6.9219 11.4906C6.89045 11.4147 6.87427 11.3333 6.87427 11.2511C6.87427 11.1689 6.89045 11.0876 6.9219 11.0116C6.95335 10.9357 6.99945 10.8667 7.05756 10.8086C7.17492 10.6913 7.33409 10.6253 7.50006 10.6253C7.58224 10.6253 7.66361 10.6415 7.73954 10.673C7.81546 10.7044 7.88445 10.7505 7.94256 10.8086L9.37506 12.2424L12.6826 8.93362C12.7406 8.87541 12.8096 8.82923 12.8855 8.79773C12.9614 8.76622 13.0428 8.75 13.1251 8.75C13.2073 8.75 13.2887 8.76622 13.3646 8.79773C13.4405 8.82923 13.5095 8.87541 13.5676 8.93362V8.93362Z" fill="#000"/>
<path d="M4.375 0C4.54076 0 4.69973 0.065848 4.81694 0.183058C4.93415 0.300269 5 0.45924 5 0.625V1.25H15V0.625C15 0.45924 15.0658 0.300269 15.1831 0.183058C15.3003 0.065848 15.4592 0 15.625 0C15.7908 0 15.9497 0.065848 16.0669 0.183058C16.1842 0.300269 16.25 0.45924 16.25 0.625V1.25H17.5C18.163 1.25 18.7989 1.51339 19.2678 1.98223C19.7366 2.45107 20 3.08696 20 3.75V17.5C20 18.163 19.7366 18.7989 19.2678 19.2678C18.7989 19.7366 18.163 20 17.5 20H2.5C1.83696 20 1.20107 19.7366 0.732233 19.2678C0.263392 18.7989 0 18.163 0 17.5V3.75C0 3.08696 0.263392 2.45107 0.732233 1.98223C1.20107 1.51339 1.83696 1.25 2.5 1.25H3.75V0.625C3.75 0.45924 3.81585 0.300269 3.93306 0.183058C4.05027 0.065848 4.20924 0 4.375 0V0ZM1.25 5V17.5C1.25 17.8315 1.3817 18.1495 1.61612 18.3839C1.85054 18.6183 2.16848 18.75 2.5 18.75H17.5C17.8315 18.75 18.1495 18.6183 18.3839 18.3839C18.6183 18.1495 18.75 17.8315 18.75 17.5V5H1.25Z" fill="#000"/>
</svg>
