<svg width="16" height="16" viewBox="0 0 16 16" fill="none" xmlns="http://www.w3.org/2000/svg">
<path d="M11.0312 5.5C10.5312 4.96875 10.0573 4.60938 9.60938 4.42188C9.16146 4.23438 8.67708 4.13542 8.15625 4.125H8.125C7.11458 4.125 6.22396 4.4974 5.45312 5.24219C4.68229 5.98698 4.29688 6.90625 4.29688 8C4.29688 9.10417 4.70052 10.0026 5.50781 10.6953C6.3151 11.388 7.18229 11.7344 8.10938 11.7344H8.125C8.71875 11.7344 9.26823 11.6276 9.77344 11.4141C10.2786 11.2005 10.7552 10.7708 11.2031 10.125H7.35938V6.14062L15.5312 6.17188C15.6771 6.93229 15.75 7.58333 15.75 8.125C15.75 10.4062 15.0443 12.2656 13.6328 13.7031C12.2214 15.1406 10.3594 15.8594 8.04688 15.8594C6.95312 15.8594 5.91146 15.651 4.92188 15.2344C3.93229 14.8177 3.07812 14.2552 2.35938 13.5469C1.64062 12.8385 1.06771 11.9948 0.640625 11.0156C0.213542 10.0365 0 9.00521 0 7.92188C0 6.47396 0.359375 5.14323 1.07812 3.92969C1.79688 2.71615 2.77344 1.75781 4.00781 1.05469C5.24219 0.351562 6.58854 0 8.04688 0C9.19271 0 10.2995 0.234375 11.3672 0.703125C12.4349 1.17188 13.3177 1.875 14.0156 2.8125L11.0312 5.5ZM8.10938 6.95312V9.35938H12.2188C12.1771 9.58854 12.1042 9.82552 12 10.0703C11.8958 10.3151 11.7318 10.5807 11.5078 10.8672C11.2839 11.1536 11.026 11.4089 10.7344 11.6328C10.4427 11.8568 10.0677 12.0417 9.60938 12.1875C9.15104 12.3333 8.65104 12.4062 8.10938 12.4062C6.86979 12.4062 5.8125 11.9688 4.9375 11.0938C4.0625 10.2188 3.625 9.17188 3.625 7.95312C3.625 6.73438 4.06771 5.68229 4.95312 4.79688C5.83854 3.91146 6.89062 3.46875 8.10938 3.46875C9.26562 3.46875 10.2292 3.84375 11 4.59375L12.9688 2.73438C11.6354 1.48438 10.0156 0.859375 8.10938 0.859375C6.10938 0.859375 4.40104 1.54948 2.98438 2.92969C1.56771 4.3099 0.859375 5.98438 0.859375 7.95312C0.859375 9.91146 1.56771 11.5807 2.98438 12.9609C4.40104 14.3411 6.10938 15.0312 8.10938 15.0312C10.2031 15.0312 11.8854 14.388 13.1562 13.1016C14.4271 11.8151 15.0625 10.1562 15.0625 8.125C15.0625 7.69792 15.0312 7.30729 14.9688 6.95312H8.10938Z" fill="#000"/>
</svg>
