<svg width="24" height="24" viewBox="2 0 12 16" fill="none" xmlns="http://www.w3.org/2000/svg">
<g clip-path="url(#clip0)">
<path d="M2.5 11.5H0.5C0.367392 11.5 0.240215 11.5527 0.146447 11.6464C0.0526784 11.7402 0 11.8674 0 12L0 14C0 14.1326 0.0526784 14.2598 0.146447 14.3536C0.240215 14.4473 0.367392 14.5 0.5 14.5H2.5C2.63261 14.5 2.75979 14.4473 2.85355 14.3536C2.94732 14.2598 3 14.1326 3 14V12C3 11.8674 2.94732 11.7402 2.85355 11.6464C2.75979 11.5527 2.63261 11.5 2.5 11.5ZM2.5 1.5H0.5C0.367392 1.5 0.240215 1.55268 0.146447 1.64645C0.0526784 1.74021 0 1.86739 0 2L0 4C0 4.13261 0.0526784 4.25979 0.146447 4.35355C0.240215 4.44732 0.367392 4.5 0.5 4.5H2.5C2.63261 4.5 2.75979 4.44732 2.85355 4.35355C2.94732 4.25979 3 4.13261 3 4V2C3 1.86739 2.94732 1.74021 2.85355 1.64645C2.75979 1.55268 2.63261 1.5 2.5 1.5ZM2.5 6.5H0.5C0.367392 6.5 0.240215 6.55268 0.146447 6.64645C0.0526784 6.74021 0 6.86739 0 7L0 9C0 9.13261 0.0526784 9.25979 0.146447 9.35355C0.240215 9.44732 0.367392 9.5 0.5 9.5H2.5C2.63261 9.5 2.75979 9.44732 2.85355 9.35355C2.94732 9.25979 3 9.13261 3 9V7C3 6.86739 2.94732 6.74021 2.85355 6.64645C2.75979 6.55268 2.63261 6.5 2.5 6.5ZM15.5 12H5.5C5.36739 12 5.24021 12.0527 5.14645 12.1464C5.05268 12.2402 5 12.3674 5 12.5V13.5C5 13.6326 5.05268 13.7598 5.14645 13.8536C5.24021 13.9473 5.36739 14 5.5 14H15.5C15.6326 14 15.7598 13.9473 15.8536 13.8536C15.9473 13.7598 16 13.6326 16 13.5V12.5C16 12.3674 15.9473 12.2402 15.8536 12.1464C15.7598 12.0527 15.6326 12 15.5 12ZM15.5 2H5.5C5.36739 2 5.24021 2.05268 5.14645 2.14645C5.05268 2.24021 5 2.36739 5 2.5V3.5C5 3.63261 5.05268 3.75979 5.14645 3.85355C5.24021 3.94732 5.36739 4 5.5 4H15.5C15.6326 4 15.7598 3.94732 15.8536 3.85355C15.9473 3.75979 16 3.63261 16 3.5V2.5C16 2.36739 15.9473 2.24021 15.8536 2.14645C15.7598 2.05268 15.6326 2 15.5 2ZM15.5 7H5.5C5.36739 7 5.24021 7.05268 5.14645 7.14645C5.05268 7.24021 5 7.36739 5 7.5V8.5C5 8.63261 5.05268 8.75979 5.14645 8.85355C5.24021 8.94732 5.36739 9 5.5 9H15.5C15.6326 9 15.7598 8.94732 15.8536 8.85355C15.9473 8.75979 16 8.63261 16 8.5V7.5C16 7.36739 15.9473 7.24021 15.8536 7.14645C15.7598 7.05268 15.6326 7 15.5 7Z" fill="#000"/>
</g>
<defs>
<clipPath id="clip0">
<rect width="16" height="16" fill="#000"/>
</clipPath>
</defs>
</svg>
