<svg width="20" height="20" viewBox="0 0 20 20" fill="none" xmlns="http://www.w3.org/2000/svg">
<path d="M3.33333 10.8327C3.79357 10.8327 4.16667 10.4596 4.16667 9.99935C4.16667 9.53911 3.79357 9.16602 3.33333 9.16602C2.8731 9.16602 2.5 9.53911 2.5 9.99935C2.5 10.4596 2.8731 10.8327 3.33333 10.8327Z" stroke="black" stroke-width="2"/>
<path d="M10.0001 10.8327C10.4603 10.8327 10.8334 10.4596 10.8334 9.99935C10.8334 9.53911 10.4603 9.16602 10.0001 9.16602C9.53984 9.16602 9.16675 9.53911 9.16675 9.99935C9.16675 10.4596 9.53984 10.8327 10.0001 10.8327Z" stroke="black" stroke-width="2"/>
<path d="M16.6666 10.8327C17.1268 10.8327 17.4999 10.4596 17.4999 9.99935C17.4999 9.53911 17.1268 9.16602 16.6666 9.16602C16.2063 9.16602 15.8333 9.53911 15.8333 9.99935C15.8333 10.4596 16.2063 10.8327 16.6666 10.8327Z" stroke="black" stroke-width="2"/>
</svg>
