<svg width="24" height="24" viewBox="0 0 24 24" fill="none" xmlns="http://www.w3.org/2000/svg">
<path d="M19.14 12.9404C19.18 12.6404 19.2 12.3304 19.2 12.0004C19.2 11.6804 19.18 11.3604 19.13 11.0604L21.16 9.48039C21.2474 9.40829 21.3072 9.30809 21.3291 9.19686C21.351 9.08563 21.3336 8.97026 21.28 8.87039L19.36 5.55039C19.3034 5.44996 19.2132 5.37277 19.1052 5.3325C18.9972 5.29224 18.8785 5.29149 18.77 5.33039L16.38 6.29039C15.88 5.91039 15.35 5.59039 14.76 5.35039L14.4 2.81039C14.3823 2.69592 14.3241 2.5916 14.236 2.51637C14.1479 2.44114 14.0358 2.39999 13.92 2.40039H10.08C9.83996 2.40039 9.64996 2.57039 9.60996 2.81039L9.24996 5.35039C8.65996 5.59039 8.11996 5.92039 7.62996 6.29039L5.23996 5.33039C5.01996 5.25039 4.76996 5.33039 4.64996 5.55039L2.73996 8.87039C2.61996 9.08039 2.65996 9.34039 2.85996 9.48039L4.88996 11.0604C4.83996 11.3604 4.79996 11.6904 4.79996 12.0004C4.79996 12.3104 4.81996 12.6404 4.86996 12.9404L2.83996 14.5204C2.75249 14.5925 2.69272 14.6927 2.67084 14.8039C2.64896 14.9152 2.66632 15.0305 2.71996 15.1304L4.63996 18.4504C4.75996 18.6704 5.00996 18.7404 5.22996 18.6704L7.61996 17.7104C8.11996 18.0904 8.64996 18.4104 9.23996 18.6504L9.59996 21.1904C9.64996 21.4304 9.83996 21.6004 10.08 21.6004H13.92C14.16 21.6004 14.36 21.4304 14.39 21.1904L14.75 18.6504C15.34 18.4104 15.88 18.0904 16.37 17.7104L18.76 18.6704C18.98 18.7504 19.23 18.6704 19.35 18.4504L21.27 15.1304C21.39 14.9104 21.34 14.6604 21.15 14.5204L19.14 12.9404ZM12 15.6004C10.02 15.6004 8.39996 13.9804 8.39996 12.0004C8.39996 10.0204 10.02 8.40039 12 8.40039C13.98 8.40039 15.6 10.0204 15.6 12.0004C15.6 13.9804 13.98 15.6004 12 15.6004Z" fill="#000"/>
</svg>
