<svg width="20" height="20" viewBox="0 0 20 20" fill="none" xmlns="http://www.w3.org/2000/svg">
<path d="M10.0005 1.34155C5.22604 1.34155 1.34204 5.22555 1.34204 10.0001C1.34204 14.7746 5.22654 18.6586 10.0005 18.6586C14.7745 18.6586 18.658 14.7741 18.658 10.0001C18.658 5.22605 14.7745 1.34155 10.0005 1.34155ZM10.0005 17.9086C5.63954 17.9086 2.09204 14.3606 2.09204 10.0001C2.09204 5.63955 5.63954 2.09155 10.0005 2.09155C14.361 2.09155 17.908 5.63955 17.908 10.0001C17.908 14.3606 14.361 17.9086 10.0005 17.9086Z" fill="#C1C8DD"/>
<path d="M13.236 11.8275L12.952 11.6495C12.9312 11.6361 12.908 11.6271 12.8837 11.623C12.8593 11.6188 12.8344 11.6197 12.8105 11.6255C12.7865 11.6309 12.7639 11.641 12.7439 11.6553C12.7239 11.6695 12.7069 11.6876 12.694 11.7085C12.4102 12.1652 12.0144 12.5418 11.5441 12.8025C11.0738 13.0632 10.5447 13.1994 10.007 13.198C9.46605 13.1996 8.93383 13.0621 8.46149 12.7985C7.98915 12.5349 7.59259 12.1542 7.30995 11.693C7.28373 11.6508 7.24188 11.6207 7.19353 11.6093C7.14519 11.5979 7.09429 11.606 7.05195 11.632L6.76595 11.8085C6.72366 11.8346 6.69347 11.8765 6.68203 11.9249C6.67059 11.9733 6.67884 12.0242 6.70495 12.0665C7.05146 12.6306 7.53713 13.0961 8.11536 13.4184C8.6936 13.7407 9.34497 13.9089 10.007 13.907C10.6648 13.9088 11.3122 13.7424 11.8878 13.4237C12.4633 13.105 12.9479 12.6446 13.2955 12.086C13.3085 12.0651 13.3174 12.0419 13.3214 12.0176C13.3255 11.9933 13.3248 11.9684 13.3193 11.9444C13.3137 11.9204 13.3035 11.8977 13.2892 11.8777C13.2749 11.8576 13.2568 11.8406 13.236 11.8275Z" fill="#C1C8DD"/>
<path d="M7.6326 8.27996C7.92089 8.27996 8.1546 8.04625 8.1546 7.75796C8.1546 7.46967 7.92089 7.23596 7.6326 7.23596C7.3443 7.23596 7.1106 7.46967 7.1106 7.75796C7.1106 8.04625 7.3443 8.27996 7.6326 8.27996Z" fill="#C1C8DD"/>
<path d="M12.2014 8.27996C12.4897 8.27996 12.7234 8.04625 12.7234 7.75796C12.7234 7.46967 12.4897 7.23596 12.2014 7.23596C11.9132 7.23596 11.6794 7.46967 11.6794 7.75796C11.6794 8.04625 11.9132 8.27996 12.2014 8.27996Z" fill="#C1C8DD"/>
</svg>
