<svg width="24" height="24" viewBox="0 0 16 12" fill="none" xmlns="http://www.w3.org/2000/svg">
<path fill-rule="evenodd" clip-rule="evenodd" d="M1 12C1 12 0 12 0 11C0 10 1 7 6 7C11 7 12 10 12 11C12 12 11 12 11 12H1ZM6 6C6.79565 6 7.55871 5.68393 8.12132 5.12132C8.68393 4.55871 9 3.79565 9 3C9 2.20435 8.68393 1.44129 8.12132 0.87868C7.55871 0.316071 6.79565 0 6 0C5.20435 0 4.44129 0.316071 3.87868 0.87868C3.31607 1.44129 3 2.20435 3 3C3 3.79565 3.31607 4.55871 3.87868 5.12132C4.44129 5.68393 5.20435 6 6 6ZM15.854 3.146C15.9006 3.19245 15.9375 3.24762 15.9627 3.30837C15.9879 3.36911 16.0009 3.43423 16.0009 3.5C16.0009 3.56577 15.9879 3.63089 15.9627 3.69163C15.9375 3.75238 15.9006 3.80755 15.854 3.854L12.854 6.854C12.8076 6.90056 12.7524 6.93751 12.6916 6.96271C12.6309 6.98792 12.5658 7.00089 12.5 7.00089C12.4342 7.00089 12.3691 6.98792 12.3084 6.96271C12.2476 6.93751 12.1924 6.90056 12.146 6.854L10.646 5.354C10.5521 5.26011 10.4994 5.13278 10.4994 5C10.4994 4.86722 10.5521 4.73989 10.646 4.646C10.7399 4.55211 10.8672 4.49937 11 4.49937C11.1328 4.49937 11.2601 4.55211 11.354 4.646L12.5 5.793L15.146 3.146C15.1924 3.09944 15.2476 3.06249 15.3084 3.03729C15.3691 3.01208 15.4342 2.99911 15.5 2.99911C15.5658 2.99911 15.6309 3.01208 15.6916 3.03729C15.7524 3.06249 15.8076 3.09944 15.854 3.146Z" fill="#000"/>
</svg>
