<svg width="79" height="48" viewBox="0 0 79 48" fill="none" xmlns="http://www.w3.org/2000/svg">
<path d="M38 17.0823C38 25.2231 30.4034 32.0435 20.7408 32.0435C11.0783 32.0435 3.48169 25.2231 3.48169 17.0823C3.48169 8.94156 11.0783 2.12109 20.7408 2.12109C30.4034 2.12109 38 8.94156 38 17.0823Z" stroke="black" stroke-width="2"/>
<path d="M16.2738 2.48438C14.5564 4.70697 12.4638 6.97242 10.0158 8.41241C8.53825 9.28155 7.21843 9.64639 5.54915 9.90915C4.67581 10.0466 3.74723 10.1213 2.86209 10.1213C2.22102 10.1213 1.60833 10.3935 1 10.5456" stroke="black" stroke-linecap="round" stroke-linejoin="round"/>
<path d="M17.2286 4.39453C15.8995 5.75954 14.5883 6.95027 12.8857 7.82996C11.1729 8.7149 9.28749 9.18686 7.47031 9.80401C6.32896 10.1916 5.07108 10.3266 3.97596 10.8058C3.59623 10.9719 3.05479 10.9337 2.64421 11.0238C2.21311 11.1184 1.76309 11.289 1.31836 11.289" stroke="black" stroke-linecap="round" stroke-linejoin="round"/>
<path d="M15.107 2.48438C13.65 4.3731 12.1016 5.83847 10.0275 6.98638C8.44761 7.8608 6.81592 8.6282 5.19554 9.40238C4.40248 9.78128 3.57751 10.0763 2.76776 10.4159C2.6552 10.4631 2.25962 10.6779 2.37884 10.4395" stroke="black" stroke-width="2" stroke-linecap="round" stroke-linejoin="round"/>
<path d="M13.7281 2.5918C12.2508 3.26327 10.896 4.20786 9.39695 4.82512C8.82523 5.06054 8.12032 5.12582 7.52897 5.30243C6.40826 5.63714 5.28558 5.94373 4.15836 6.25115C3.15828 6.5239 2.11734 6.68775 1.10596 6.94059" stroke="black" stroke-linecap="round" stroke-linejoin="round"/>
<path d="M13.4099 3.22656C12.6337 3.66443 11.9055 4.16671 11.094 4.52295C9.27498 5.32157 7.67553 6.58461 5.84367 7.35144C5.09218 7.66601 4.42423 8.10117 3.68695 8.44747C2.96445 8.78683 1.93502 9.37852 1.10596 9.37852" stroke="black" stroke-linecap="round" stroke-linejoin="round"/>
<path d="M18.2893 1.31836C19.2719 2.28243 20.2666 3.25383 21.2828 4.1822C21.7088 4.57139 22.4072 5.07678 22.7206 5.56109C22.9458 5.90905 24.0542 6.1634 24.4413 6.32713C25.2178 6.65566 25.896 6.84934 26.7394 6.96354C29.7847 7.37592 32.849 7.68245 35.9202 7.68245C36.4762 7.68245 37.6509 7.78577 38.1241 7.47031" stroke="black" stroke-width="2" stroke-linecap="round" stroke-linejoin="round"/>
<path d="M17.9709 2.37891C18.8448 3.4192 19.6521 4.32753 20.8112 5.03061C22.2615 5.91031 23.7457 6.74698 25.3957 7.23447C29.3496 8.40265 33.6035 8.743 37.6996 8.743" stroke="black" stroke-width="2" stroke-linecap="round" stroke-linejoin="round"/>
<path d="M16.6982 3.01562C17.4792 3.96005 18.2725 4.80201 19.1378 5.66733C19.6455 6.17501 20.3886 6.57753 20.8408 7.10514C21.0494 7.34849 21.591 7.39168 21.8779 7.48227C22.6894 7.73852 23.5092 7.93044 24.341 8.1069C26.1111 8.48236 27.9026 8.83399 29.6975 9.06151C32.0946 9.36537 34.3872 9.59185 36.8041 9.59185C37.1413 9.59185 38.3951 9.68608 38.5483 9.37971" stroke="black" stroke-linecap="round" stroke-linejoin="round"/>
<path d="M20.4106 1.84766C21.5645 2.76547 22.7963 3.47063 24.1112 4.12812C25.3191 4.73205 26.8237 4.88882 28.1595 5.08274C30.1518 5.37193 32.1205 5.34791 34.1288 5.34791C34.9597 5.34791 35.7905 5.34791 36.6214 5.34791C36.8248 5.34791 37.1792 5.43433 37.2755 5.24184" stroke="black" stroke-linecap="round" stroke-linejoin="round"/>
<path d="M22.3196 1C25.8299 1.03476 29.1898 2.27282 32.6907 2.27282C33.1579 2.27282 33.6271 2.28545 34.0931 2.24925C34.3585 2.22864 35.458 2.3009 35.5781 2.06068" stroke="black" stroke-linecap="round" stroke-linejoin="round"/>
<path d="M21.0469 15.2139C21.0469 16.9071 21.0469 18.6003 21.0469 20.2934C21.0469 20.9922 20.8628 21.9147 21.0528 22.5798C21.1068 22.7688 22.4185 22.6387 22.5554 22.6387C25.1501 22.6387 27.7449 22.6387 30.3396 22.6387C31.6537 22.6387 32.9678 22.6387 34.2818 22.6387C34.7749 22.6387 35.467 22.769 35.9436 22.6328C36.0997 22.5882 36.0805 20.2313 36.1086 19.9929C36.2279 18.9785 36.415 17.9264 36.415 16.9051C36.415 16.3766 36.2146 15.861 36.2146 15.32C36.2146 14.729 36.1059 14.7897 35.5252 14.7897C34.6041 14.7897 33.6825 14.7795 32.7615 14.7897C32.2547 14.7952 31.7858 15.0018 31.2883 15.0018C30.8012 15.0018 30.3141 15.0018 29.827 15.0018C28.827 15.0018 27.8447 15.092 26.8453 15.1079C25.8484 15.1237 24.8975 15.4757 23.9107 15.5321C22.5856 15.6079 21.2309 15.6382 19.8801 15.6382" stroke="black" stroke-width="2" stroke-linecap="round" stroke-linejoin="round"/>
<path d="M3.65168 15.6375C3.65168 17.1946 3.50986 18.8213 3.73418 20.3634C3.81708 20.9334 3.93967 21.5336 3.96988 22.1077C3.97765 22.2553 4.07166 22.4294 4.22916 22.4259C5.59115 22.3956 6.95183 22.0838 8.31868 22.0252C9.79093 21.9621 11.307 21.8955 12.7735 21.8955C13.8067 21.8955 14.8399 21.8955 15.8731 21.8955C16.0353 21.8955 17.0141 22.0083 17.0988 21.8484C17.2102 21.6379 17.1132 21.1571 17.0752 20.9527C16.9357 20.203 16.7574 19.4613 16.6156 18.7135C16.502 18.1146 16.4859 17.5729 16.4859 16.9634C16.4859 16.7887 16.4969 15.8621 16.645 15.7436C16.8245 15.6 16.1632 15.6375 16.1147 15.6375C15.5034 15.6375 14.9191 15.4679 14.3174 15.3782C12.5184 15.1103 10.5202 14.7883 8.69581 15.06C6.83778 15.3368 4.84873 15.5921 3.12134 16.1679" stroke="black" stroke-width="2" stroke-linecap="round" stroke-linejoin="round"/>
<path d="M16.3799 18.0767C17.4434 18.0767 18.5005 18.1413 19.5384 17.8646C20.109 17.7124 20.3156 17.7585 20.8347 17.7585" stroke="black" stroke-width="2" stroke-linecap="round" stroke-linejoin="round"/>
<path d="M34.4114 18.3945C34.2104 18.6991 33.97 18.9936 33.8811 19.3491" stroke="black" stroke-linecap="round" stroke-linejoin="round"/>
<path d="M35.1541 18.7129C35.1393 19.3362 34.8105 19.6376 34.6238 20.1978" stroke="black" stroke-linecap="round" stroke-linejoin="round"/>
<path d="M13.6222 18.2891C13.36 18.6497 12.9167 19.2388 12.7737 19.6679" stroke="black" stroke-linecap="round" stroke-linejoin="round"/>
<path d="M14.789 18.2891C14.7429 18.5501 14.6924 19.7198 14.4118 19.8801C14.2187 19.9905 14.0622 20.1217 13.9404 20.3044" stroke="black" stroke-linecap="round" stroke-linejoin="round"/>
<path d="M26.6687 2.80273C28.6339 4.63237 31.4558 5.77264 34.1524 5.77264C35.1581 5.77264 36.1638 5.77264 37.1695 5.77264" stroke="black" stroke-width="2" stroke-linecap="round" stroke-linejoin="round"/>
<path d="M20.8347 3.43945C22.4855 4.67752 24.2274 5.84084 26.1853 6.539C27.7936 7.1125 29.4044 7.25791 31.0998 7.25791C32.082 7.25791 33.046 7.25033 34.0225 7.12827C34.2584 7.09878 35.2701 7.02553 35.3661 6.83363" stroke="black" stroke-linecap="round" stroke-linejoin="round"/>
<path d="M18.9258 4.07617C19.6632 5.89803 22.5137 6.65282 24.241 6.99305C25.9618 7.33199 27.6012 7.57642 29.3617 7.57642C29.8785 7.57642 31.4901 7.84639 31.8661 7.47035" stroke="black" stroke-linecap="round" stroke-linejoin="round"/>
<path d="M23.2742 2.69727C24.9468 3.44854 26.6328 4.18222 28.4892 4.18222C29.4444 4.18222 30.3901 4.21119 31.3354 4.07615" stroke="black" stroke-width="2" stroke-linecap="round" stroke-linejoin="round"/>
<path d="M14 24.8884C14.3925 25.653 14.8141 26.1909 15.3846 26.5913C16.1118 27.1017 16.975 27.2109 17.7385 27.5538C18.5045 27.8979 19.2985 27.998 20.0897 27.998C20.7897 27.998 21.5049 28.05 22.1692 27.6237C22.5039 27.409 22.8607 27.2918 23.1846 27.0355C23.4696 26.81 23.7488 26.5459 24.0256 26.2951C24.3481 26.0031 24.7186 25.748 24.9949 25.3491C25.302 24.9057 25.8129 24.6002 26 24" stroke="black" stroke-linecap="round" stroke-linejoin="round"/>
<path d="M59.0625 12.1765V34.489M59.0625 12.1765C59.0625 12.1765 50.5312 5.80147 42 11.114V34.489C50.5312 29.1765 59.0625 34.489 59.0625 34.489C59.0625 34.489 67.5938 29.1765 76.125 34.489V11.114C67.5938 5.80147 59.0625 12.1765 59.0625 12.1765Z" stroke="black" stroke-linecap="round" stroke-linejoin="round"/>
<path d="M53.176 20.048C52.88 19.992 52.632 19.984 52.344 19.992C52.424 19.696 52.544 18.848 52.592 18.296C52.624 18.24 52.712 18.112 52.728 18.048C52.752 17.968 52.752 17.904 52.728 17.816C52.688 17.664 52.56 17.544 52.392 17.424C52.296 17.352 52.16 17.328 52.08 17.328C51.96 17.328 51.48 17.392 51.28 17.408C51.176 17.416 49.856 17.456 49.624 17.456C49.4 17.456 49.224 17.408 49.12 17.368C48.928 17.296 48.856 17.264 48.72 17.4C48.616 17.504 48.512 17.664 48.456 17.824C48.44 17.872 48.432 17.92 48.496 18C48.592 18.12 48.768 18.232 48.992 18.32C49.232 18.416 49.352 18.4 49.576 18.408C49.904 18.424 50.72 18.4 51.336 18.384C51.28 18.832 51.296 19.52 51.376 20.024C51.096 20.024 50.776 20.032 50.504 20.04C50.504 19.824 50.504 19.6 50.496 19.472C50.488 19.328 50.504 19.272 50.512 19.16C50.52 19.008 50.4 18.936 50.28 18.896C50.128 18.848 49.864 18.856 49.712 18.888C49.456 18.944 49.28 19.056 49.288 19.224C49.296 19.344 49.384 19.408 49.392 19.6C49.4 19.752 49.4 19.92 49.4 20.072C49.024 20.096 48.576 20.12 48.4 20.12C48.112 20.12 48.008 20.104 47.84 20.056L47.608 19.984C47.52 19.96 47.44 19.968 47.368 20.04C47.296 20.112 47.168 20.312 47.136 20.384C47.104 20.464 47.072 20.568 47.128 20.64C47.2 20.728 47.4 20.872 47.536 20.952C47.664 21.032 47.872 21.112 48.04 21.104C49.344 21.04 50.368 20.984 51.784 20.984C52.072 20.984 52.912 21.04 53.176 21.04C53.296 21.04 53.384 21.048 53.536 21C53.664 20.96 53.944 20.752 53.952 20.648C53.968 20.456 53.56 20.12 53.176 20.048ZM50.776 21.336C50.616 21.328 50.384 21.344 50.248 21.432C49.328 21.512 48.36 21.952 48.36 22.776C48.36 22.992 48.48 23.24 48.616 23.352C48.88 23.896 49.744 24.2 50.656 24.2C51.688 24.2 52.624 23.776 52.688 22.896C52.752 21.976 51.84 21.392 50.776 21.336ZM51.52 22.768C51.496 23.144 50.984 23.248 50.64 23.248C50.168 23.248 49.712 23.184 49.48 22.768C49.72 22.384 50.24 22.256 50.616 22.24C51.096 22.288 51.536 22.472 51.52 22.768ZM66.3083 18.224C66.3483 18.304 66.3643 18.392 66.3723 18.576C66.3803 18.76 66.4043 19.512 66.4043 19.72C66.4043 19.912 66.4363 20.056 66.4843 20.152C66.5403 20.264 66.7163 20.408 66.8843 20.384C66.9803 20.368 67.0763 20.304 67.1563 20.216C67.7323 20.2 68.5323 20.192 69.1243 20.192L69.1483 20.232C69.2443 20.336 69.3803 20.368 69.5403 20.352C69.7163 20.336 69.9083 20.192 69.9563 20.008C69.9803 19.92 69.9803 19.68 69.9803 19.568C69.9803 19.328 69.9883 18.496 69.9723 18.28C69.9563 18.064 69.9323 17.816 69.8683 17.696C69.7323 17.448 69.6363 17.376 69.5403 17.288C69.4443 17.2 69.3083 17.2 69.2523 17.208C69.1643 17.224 68.8683 17.352 68.8123 17.432C68.7563 17.504 68.7003 17.584 68.7643 17.712C68.7883 17.76 68.8603 17.848 68.9003 17.912C68.9403 17.976 68.9643 18.056 68.9643 18.184L68.9723 19.312C68.5083 19.328 67.8363 19.336 67.4203 19.344L67.3963 18.92C67.5723 18.92 67.7643 18.912 67.9003 18.92C68.1643 18.928 68.3403 18.856 68.4843 18.76C68.5803 18.696 68.7083 18.568 68.7323 18.424C68.7403 18.376 68.7003 18.328 68.6203 18.232C68.4923 18.072 68.2523 17.968 68.1323 17.976C68.0203 17.984 67.8363 18.008 67.7243 18.032C67.6043 18.056 67.4363 18.096 67.2763 18.12C67.2203 17.952 67.1403 17.808 67.0443 17.68C66.9803 17.592 66.8603 17.512 66.7803 17.48C66.6923 17.448 66.6363 17.448 66.5883 17.472C66.4923 17.52 66.2283 17.696 66.1723 17.768C66.1243 17.824 66.1403 17.912 66.1563 17.968C66.1723 18.032 66.2683 18.144 66.3083 18.224ZM71.5243 21.312C71.4203 21.128 71.0603 20.816 70.8843 20.744C70.6043 20.632 70.4363 20.648 70.0283 20.672C69.4203 20.704 66.8283 20.752 66.1723 20.776C65.9323 20.784 65.7563 20.784 65.5003 20.656C65.3723 20.592 65.2843 20.592 65.2043 20.672C65.1483 20.728 64.9803 20.96 64.9403 21.032C64.8923 21.12 64.9083 21.176 64.9403 21.224C65.0123 21.328 65.1243 21.464 65.3323 21.6C65.5963 21.776 65.8443 21.816 66.1723 21.792C66.3723 21.776 66.9643 21.752 67.6363 21.736C67.6363 22.384 67.6123 23.056 67.6443 23.264C67.6843 23.552 67.8283 23.752 67.9803 23.992C68.0443 24.096 68.1323 24.2 68.1563 24.328C68.2283 24.208 68.3963 24.064 68.4683 23.992C68.7403 23.72 68.8443 23.368 68.8443 22.96V21.696C69.3243 21.688 69.7243 21.68 69.9003 21.688C70.1563 21.696 70.6123 21.712 70.7563 21.728C71.0203 21.76 71.2763 21.72 71.4683 21.624C71.5643 21.576 71.5883 21.424 71.5243 21.312Z" fill="black"/>
<path d="M10.0584 30.6445C9.2776 33.0329 8.63764 35.5152 8.22477 37.9924C7.92777 39.7745 8.01063 41.568 8.01063 43.3795C8.01063 44.5149 8.01063 45.6503 8.01063 46.7857" stroke="black" stroke-width="2" stroke-linecap="round" stroke-linejoin="round"/>
<path d="M34.6123 28C34.6123 29.8163 34.6123 31.6326 34.6123 33.4489C34.6123 34.0701 34.6123 34.6914 34.6123 35.3126C34.6123 35.9447 34.7655 36.5505 34.8271 37.1763C34.8878 37.7924 35.0978 38.3145 35.2938 38.8895C35.3605 39.0853 35.8213 38.9647 35.9308 38.948C36.5827 38.8483 37.2373 38.7905 37.8938 38.7391C40.1664 38.561 42.5382 38.2659 44.6938 37.4019C45.8753 36.9283 46.975 36.1847 48.0123 35.4045C48.7196 34.8726 49.2403 34.3301 49.6123 33.4907" stroke="black" stroke-width="2" stroke-linecap="round" stroke-linejoin="round"/>
</svg>
