<svg width="85" height="47" viewBox="0 0 85 47" fill="none" xmlns="http://www.w3.org/2000/svg">
<path d="M37.9997 17.0823C37.9997 25.2231 30.4031 32.0435 20.7406 32.0435C11.0781 32.0435 3.48145 25.2231 3.48145 17.0823C3.48145 8.94156 11.0781 2.12109 20.7406 2.12109C30.4031 2.12109 37.9997 8.94156 37.9997 17.0823Z" stroke="black" stroke-width="2"/>
<path d="M16.2738 2.48535C14.5564 4.70794 12.4638 6.9734 10.0158 8.41338C8.53825 9.28253 7.21843 9.64737 5.54915 9.91012C4.67581 10.0476 3.74723 10.1223 2.86209 10.1223C2.22102 10.1223 1.60833 10.3945 1 10.5465" stroke="black" stroke-linecap="round" stroke-linejoin="round"/>
<path d="M17.2286 4.39453C15.8995 5.75954 14.5883 6.95027 12.8857 7.82996C11.1729 8.7149 9.28749 9.18686 7.47031 9.80401C6.32896 10.1916 5.07108 10.3266 3.97596 10.8058C3.59623 10.9719 3.05479 10.9337 2.64421 11.0238C2.21311 11.1184 1.76309 11.289 1.31836 11.289" stroke="black" stroke-linecap="round" stroke-linejoin="round"/>
<path d="M15.1068 2.48535C13.6498 4.37407 12.1013 5.83945 10.0273 6.98736C8.44736 7.86178 6.81567 8.62917 5.19529 9.40335C4.40224 9.78226 3.57726 10.0773 2.76751 10.4169C2.65495 10.4641 2.25938 10.6789 2.37859 10.4405" stroke="black" stroke-width="2" stroke-linecap="round" stroke-linejoin="round"/>
<path d="M13.7281 2.59082C12.2508 3.26229 10.896 4.20689 9.39695 4.82414C8.82523 5.05956 8.12032 5.12484 7.52897 5.30145C6.40826 5.63616 5.28558 5.94275 4.15836 6.25017C3.15828 6.52292 2.11734 6.68677 1.10596 6.93962" stroke="black" stroke-linecap="round" stroke-linejoin="round"/>
<path d="M13.4099 3.22754C12.6337 3.6654 11.9055 4.16769 11.094 4.52393C9.27498 5.32254 7.67553 6.58559 5.84367 7.35241C5.09218 7.66699 4.42423 8.10215 3.68695 8.44845C2.96445 8.78781 1.93502 9.37949 1.10596 9.37949" stroke="black" stroke-linecap="round" stroke-linejoin="round"/>
<path d="M18.2891 1.31836C19.2717 2.28243 20.2663 3.25383 21.2825 4.1822C21.7086 4.57139 22.407 5.07678 22.7204 5.56109C22.9455 5.90905 24.054 6.1634 24.441 6.32713C25.2175 6.65566 25.8958 6.84934 26.7392 6.96354C29.7844 7.37592 32.8488 7.68245 35.9199 7.68245C36.476 7.68245 37.6506 7.78577 38.1238 7.47031" stroke="black" stroke-width="2" stroke-linecap="round" stroke-linejoin="round"/>
<path d="M17.9707 2.37891C18.8445 3.4192 19.6518 4.32753 20.811 5.03061C22.2613 5.91031 23.7455 6.74698 25.3955 7.23447C29.3493 8.40265 33.6033 8.743 37.6994 8.743" stroke="black" stroke-width="2" stroke-linecap="round" stroke-linejoin="round"/>
<path d="M16.6982 3.01562C17.4792 3.96005 18.2725 4.80201 19.1378 5.66733C19.6455 6.17501 20.3886 6.57753 20.8408 7.10514C21.0494 7.34849 21.591 7.39168 21.8779 7.48227C22.6894 7.73852 23.5092 7.93044 24.341 8.1069C26.1111 8.48236 27.9026 8.83399 29.6975 9.06151C32.0946 9.36537 34.3872 9.59185 36.8041 9.59185C37.1413 9.59185 38.3951 9.68608 38.5483 9.37971" stroke="black" stroke-linecap="round" stroke-linejoin="round"/>
<path d="M20.4106 1.84863C21.5645 2.76644 22.7963 3.47161 24.1112 4.1291C25.3191 4.73302 26.8237 4.8898 28.1595 5.08371C30.1518 5.37291 32.1205 5.34888 34.1288 5.34888C34.9597 5.34888 35.7905 5.34888 36.6214 5.34888C36.8248 5.34888 37.1792 5.43531 37.2755 5.24281" stroke="black" stroke-linecap="round" stroke-linejoin="round"/>
<path d="M22.3193 1C25.8296 1.03476 29.1896 2.27282 32.6904 2.27282C33.1577 2.27282 33.6268 2.28545 34.0929 2.24925C34.3582 2.22864 35.4577 2.3009 35.5779 2.06068" stroke="black" stroke-linecap="round" stroke-linejoin="round"/>
<path d="M21.0466 15.213C21.0466 16.9061 21.0466 18.5993 21.0466 20.2924C21.0466 20.9913 20.8625 21.9138 21.0525 22.5788C21.1065 22.7679 22.4182 22.6377 22.5552 22.6377C25.1499 22.6377 27.7446 22.6377 30.3394 22.6377C31.6534 22.6377 32.9675 22.6377 34.2816 22.6377C34.7747 22.6377 35.4668 22.768 35.9433 22.6318C36.0994 22.5872 36.0803 20.2303 36.1083 19.9919C36.2276 18.9776 36.4147 17.9254 36.4147 16.9041C36.4147 16.3756 36.2144 15.86 36.2144 15.319C36.2144 14.7281 36.1056 14.7887 35.5249 14.7887C34.6038 14.7887 33.6823 14.7786 32.7613 14.7887C32.2545 14.7942 31.7856 15.0008 31.2881 15.0008C30.801 15.0008 30.3138 15.0008 29.8267 15.0008C28.8267 15.0008 27.8444 15.091 26.845 15.1069C25.8481 15.1227 24.8972 15.4748 23.9105 15.5312C22.5854 15.6069 21.2306 15.6372 19.8799 15.6372" stroke="black" stroke-width="2" stroke-linecap="round" stroke-linejoin="round"/>
<path d="M3.65143 15.6375C3.65143 17.1946 3.50962 18.8213 3.73393 20.3634C3.81684 20.9334 3.93942 21.5336 3.96964 22.1077C3.97741 22.2553 4.07141 22.4294 4.22892 22.4259C5.5909 22.3956 6.95159 22.0838 8.31843 22.0252C9.79069 21.9621 11.3068 21.8955 12.7733 21.8955C13.8065 21.8955 14.8397 21.8955 15.8728 21.8955C16.035 21.8955 17.0138 22.0083 17.0985 21.8484C17.21 21.6379 17.113 21.1571 17.075 20.9527C16.9355 20.203 16.7572 19.4613 16.6153 18.7135C16.5017 18.1146 16.4857 17.5729 16.4857 16.9634C16.4857 16.7887 16.4967 15.8621 16.6448 15.7436C16.8243 15.6 16.1629 15.6375 16.1144 15.6375C15.5032 15.6375 14.9189 15.4679 14.3172 15.3782C12.5182 15.1103 10.5199 14.7883 8.69557 15.06C6.83753 15.3368 4.84848 15.5921 3.12109 16.1679" stroke="black" stroke-width="2" stroke-linecap="round" stroke-linejoin="round"/>
<path d="M16.3799 18.0767C17.4434 18.0767 18.5005 18.1413 19.5384 17.8646C20.109 17.7124 20.3156 17.7585 20.8347 17.7585" stroke="black" stroke-width="2" stroke-linecap="round" stroke-linejoin="round"/>
<path d="M34.4112 18.3955C34.2102 18.7001 33.9697 18.9946 33.8809 19.3501" stroke="black" stroke-width="0.5" stroke-linecap="round" stroke-linejoin="round"/>
<path d="M35.1544 18.7129C35.1395 19.3362 34.8108 19.6376 34.624 20.1978" stroke="black" stroke-width="0.5" stroke-linecap="round" stroke-linejoin="round"/>
<path d="M13.622 18.2891C13.3597 18.6497 12.9165 19.2388 12.7734 19.6679" stroke="black" stroke-width="0.5" stroke-linecap="round" stroke-linejoin="round"/>
<path d="M14.789 18.2891C14.7429 18.5501 14.6924 19.7198 14.4118 19.8801C14.2187 19.9905 14.0622 20.1217 13.9404 20.3044" stroke="black" stroke-width="0.5" stroke-linecap="round" stroke-linejoin="round"/>
<path d="M26.6689 2.80273C28.6341 4.63237 31.4561 5.77264 34.1526 5.77264C35.1583 5.77264 36.164 5.77264 37.1697 5.77264" stroke="black" stroke-width="2" stroke-linecap="round" stroke-linejoin="round"/>
<path d="M20.835 3.43945C22.4857 4.67752 24.2276 5.84084 26.1855 6.539C27.7938 7.1125 29.4046 7.25791 31.1 7.25791C32.0822 7.25791 33.0463 7.25033 34.0228 7.12827C34.2587 7.09878 35.2704 7.02553 35.3663 6.83363" stroke="black" stroke-linecap="round" stroke-linejoin="round"/>
<path d="M18.9258 4.07617C19.6632 5.89803 22.5137 6.65282 24.241 6.99305C25.9618 7.33199 27.6012 7.57642 29.3617 7.57642C29.8785 7.57642 31.4901 7.84639 31.8661 7.47035" stroke="black" stroke-linecap="round" stroke-linejoin="round"/>
<path d="M23.2744 2.69727C24.9471 3.44854 26.633 4.18222 28.4894 4.18222C29.4446 4.18222 30.3903 4.21119 31.3356 4.07615" stroke="black" stroke-width="2" stroke-linecap="round" stroke-linejoin="round"/>
<path d="M14 24.8884C14.3925 25.653 14.8141 26.1909 15.3846 26.5913C16.1118 27.1017 16.975 27.2109 17.7385 27.5538C18.5045 27.8979 19.2985 27.998 20.0897 27.998C20.7897 27.998 21.5049 28.05 22.1692 27.6237C22.5039 27.409 22.8607 27.2918 23.1846 27.0355C23.4696 26.81 23.7488 26.5459 24.0256 26.2951C24.3481 26.0031 24.7186 25.748 24.9949 25.3491C25.302 24.9057 25.8129 24.6002 26 24" stroke="black" stroke-linecap="round" stroke-linejoin="round"/>
<path d="M10.4461 29.6445C9.66529 32.0329 9.02534 34.5152 8.61247 36.9924C8.31546 38.7745 8.39832 40.568 8.39832 42.3795C8.39832 43.5149 8.39832 44.6503 8.39832 45.7857" stroke="black" stroke-width="2" stroke-linecap="round" stroke-linejoin="round"/>
<rect x="42.5" y="1.5" width="42" height="44" fill="#3B761F" stroke="#3B761F"/>
<path d="M35 27C35 28.8163 35 30.6326 35 32.4489C35 33.0701 35 33.6914 35 34.3126C35 34.9447 35.1532 35.5505 35.2148 36.1763C35.2755 36.7924 35.4855 37.3145 35.6815 37.8895C35.7482 38.0853 36.209 37.9647 36.3185 37.948C36.9704 37.8483 37.625 37.7905 38.2815 37.7391C40.5541 37.561 42.9259 37.2659 45.0815 36.4019C46.263 35.9283 47.3627 35.1847 48.4 34.4045C49.1073 33.8726 49.628 33.3301 50 32.4907" stroke="black" stroke-width="2" stroke-linecap="round" stroke-linejoin="round"/>
<path d="M55.056 12.752C54.944 12.656 54.784 12.552 54.568 12.608C54.512 12.624 54.44 12.64 54.368 12.648C54.368 11.832 54.36 10.904 54.32 10.272C54.288 9.68 54.184 9.464 53.68 9.088C53.408 8.888 53.32 8.928 53.04 9.152C52.768 9.376 52.68 9.472 52.872 9.696C53.016 9.864 53.072 10.032 53.096 10.448C53.128 11.04 53.128 12.024 53.112 12.96C52.76 12.904 52.096 12.912 51.72 12.944C51.496 12.96 51.192 12.976 50.88 12.984C50.888 12.632 50.88 12.048 50.864 11.576C50.848 11.032 50.776 10.952 50.384 10.616C50.048 10.328 49.944 10.336 49.608 10.656C49.312 10.944 49.328 11.064 49.456 11.232C49.584 11.4 49.608 11.48 49.624 11.792C49.648 12.168 49.648 12.632 49.648 13.048C49.544 13.08 49.384 13.288 49.384 13.568C49.384 13.816 49.504 14.056 49.736 14.152C49.848 14.2 50.184 14.16 50.456 14.136C50.888 14.104 51.576 14.088 51.808 14.088C51.992 14.088 52.2 14.056 52.416 13.968C52.672 13.864 52.928 13.728 53.096 13.592L53.072 14.192C53.048 14.712 53.056 15.128 53.208 15.48C53.328 15.752 53.44 16.024 53.432 16.28C53.904 15.76 54.312 14.928 54.344 14.176C54.352 14.08 54.352 13.96 54.352 13.832C54.512 13.832 54.688 13.832 54.808 13.824C55.16 13.808 55.52 13.616 55.52 13.368C55.52 13.216 55.232 12.904 55.056 12.752ZM57.1084 10.192C57.1564 10.264 57.1964 10.392 57.2204 10.496C57.2444 10.608 57.2604 10.832 57.2764 11.048C57.1724 11.144 57.1324 11.296 57.1644 11.456C57.1964 11.624 57.3644 11.856 57.4604 11.896C57.5564 11.936 57.7404 11.968 58.0124 11.944C58.2044 11.928 60.1004 11.864 60.3084 11.864C60.5004 11.864 60.6764 11.832 60.7724 11.72C60.9004 11.568 61.0444 11.384 61.1644 11.104C61.1884 11.048 61.2284 10.952 61.2044 10.888C61.1884 10.84 61.1164 10.776 60.9964 10.792C60.8124 10.816 60.3804 10.864 60.0284 10.872C59.8204 10.88 58.9324 10.912 58.3404 10.912C58.3244 10.24 58.3004 10.016 58.2204 9.84C58.1164 9.616 57.8284 9.44 57.7084 9.376C57.5884 9.312 57.4844 9.32 57.4044 9.36C57.2444 9.44 56.9724 9.656 56.9084 9.76C56.8444 9.864 56.8604 9.944 56.9004 10C56.9484 10.064 57.0604 10.12 57.1084 10.192ZM62.4524 12.912C62.4204 12.848 62.0684 12.464 61.7644 12.424C61.3244 12.368 60.9084 12.368 60.4364 12.36C59.9404 12.352 58.7244 12.416 58.4204 12.424C58.1964 12.432 57.1724 12.496 56.8844 12.496C56.5964 12.496 56.4924 12.48 56.3244 12.432L56.0924 12.36C56.0044 12.336 55.9244 12.344 55.8524 12.416C55.7804 12.488 55.6524 12.728 55.6204 12.8C55.5884 12.872 55.5564 12.976 55.6124 13.048C55.6844 13.136 55.8844 13.28 56.0204 13.36C56.1484 13.44 56.3564 13.52 56.5244 13.512L58.1564 13.44C58.3324 13.432 59.9084 13.392 60.2684 13.392C60.6364 13.392 60.9724 13.416 61.1324 13.432C61.2924 13.448 61.5324 13.472 61.6604 13.496C61.7804 13.52 61.8604 13.504 62.0124 13.456C62.1404 13.416 62.3964 13.24 62.4364 13.12C62.4604 13.088 62.4764 12.984 62.4524 12.912ZM60.9964 14.776C60.8604 14.752 60.7404 14.776 60.3884 14.848C60.0764 14.912 59.8684 14.936 59.5724 14.952C59.3004 14.968 58.7644 14.96 58.6284 14.944C58.5004 14.928 58.3724 14.808 58.2924 14.728C58.0764 14.512 57.6844 14.056 57.5564 13.928C57.4284 13.8 57.3164 13.808 57.1404 13.84C56.9244 13.88 56.7164 14 56.5644 14.152C56.5004 14.216 56.4924 14.304 56.5164 14.36C56.5484 14.432 56.6364 14.48 56.7084 14.528C56.7724 14.568 56.8364 14.648 56.8924 14.704C57.1644 14.976 57.4124 15.312 57.6364 15.576C57.9004 15.888 58.0444 16.016 58.5804 16.016C59.1084 16.016 60.3324 15.976 60.7404 15.96C60.9164 15.952 61.0684 15.888 61.1964 15.808C61.3324 15.72 61.5484 15.536 61.5964 15.48C61.6364 15.432 61.5964 15.264 61.5084 15.16C61.4284 15.064 61.1164 14.8 60.9964 14.776ZM54.864 24.48C54.816 24.4 54.704 24.272 54.608 24.184C54.504 24.088 54.376 24.072 54.264 24.12C54.096 24.192 53.784 24.272 53.352 24.288C53.072 24.296 52.32 24.288 52.104 24.256C51.936 24.232 51.792 24.088 51.696 23.976L51.64 23.904C52.376 23.912 53.344 23.928 53.72 23.928C53.904 23.928 54.144 23.864 54.208 23.664C54.232 23.592 54.432 23.104 54.472 22.952C54.544 22.688 54.568 22.648 54.4 22.44C54.328 22.344 54.232 22.264 54.136 22.208C54.376 21.944 54.56 21.48 54.6 21.048C54.64 20.576 54.608 19.968 54.632 19.448C54.64 19.256 54.624 19.016 54.6 18.864C54.568 18.64 54.488 18.416 54.296 18.256C54.176 18.152 53.96 18.008 53.848 17.96C53.768 17.928 53.68 17.936 53.576 17.984C53.472 18.032 53.304 18.168 53.256 18.24C53.192 18.336 53.168 18.432 53.208 18.488C53.264 18.56 53.416 18.696 53.44 18.776C53.488 18.944 53.488 19.056 53.488 19.256C53.488 19.648 53.472 19.968 53.432 20.472C53.408 20.784 53.408 21.12 53.496 21.472C53.552 21.704 53.656 21.912 53.768 22.12C53.184 22.168 51.968 22.224 51.488 22.224C51.296 22.224 51.136 22.184 50.992 22.152C50.72 22.088 50.664 22.024 50.504 22.2C50.4 22.312 50.384 22.408 50.392 22.504C50.4 22.6 50.504 22.688 50.616 22.76C50.808 22.88 50.92 22.936 51.128 22.928C51.712 22.904 52.6 22.912 53.28 22.92L53.264 23.224C52.808 23.24 51.8 23.248 51.232 23.248C51.168 23.192 51.08 23.184 51.048 23.184C50.856 23.184 50.448 23.224 50.296 23.304C50.184 23.36 50.216 23.512 50.288 23.656C50.472 24.024 50.768 24.544 51.096 24.816C51.36 25.04 51.712 25.184 52.208 25.216C52.544 25.24 52.976 25.232 53.456 25.216C53.92 25.2 54.304 25.168 54.616 24.976C54.928 24.784 54.976 24.664 54.864 24.48ZM51.384 21.216C51.52 21.336 51.72 21.552 51.792 21.64C52.04 21.936 52.464 21.968 52.68 21.84C52.792 21.776 52.848 21.576 52.856 21.4C52.872 21.112 52.768 20.968 52.512 20.832C52.384 20.768 52.2 20.672 52.04 20.608C52.24 20.416 52.416 20.224 52.536 20.072C52.744 19.8 52.848 19.672 52.624 19.376C52.52 19.24 52.408 19.16 52.24 19.16C52.128 19.16 52.016 19.208 51.904 19.216C51.84 19.216 51.76 19.224 51.68 19.224V19C51.68 18.776 51.656 18.648 51.528 18.528C51.424 18.432 51.232 18.32 51.072 18.264C50.824 18.176 50.728 18.216 50.568 18.408C50.376 18.632 50.384 18.712 50.528 18.856C50.6 18.928 50.648 18.992 50.672 19.12L50.688 19.248H50.48C50.288 19.24 50.176 19.224 49.992 19.136C49.896 19.088 49.832 19.088 49.712 19.16C49.632 19.208 49.528 19.304 49.488 19.36C49.416 19.464 49.416 19.56 49.48 19.648C49.64 19.872 49.944 20.096 50.304 20.112C50.456 20.12 50.864 20.112 51.152 20.104C50.816 20.472 50.008 21.04 49.584 21.264C49.376 21.376 49.2 21.472 48.984 21.488C49.16 21.712 49.448 21.92 49.792 21.928C50.208 21.936 50.464 21.864 50.864 21.616C50.984 21.544 51.176 21.392 51.384 21.216ZM61.4381 21.32C61.3181 21.136 61.1661 20.968 60.9741 20.864C60.9021 20.824 60.7901 20.816 60.6701 20.824C60.6141 20.824 60.5101 20.84 60.4141 20.848C60.4061 20.544 60.4141 20.168 60.4221 19.656C60.4221 19.464 60.4141 19.16 60.3981 19.024C60.3741 18.8 60.3581 18.64 60.1901 18.456C60.1021 18.36 59.7821 18.096 59.6861 18.056C59.6061 18.024 59.5181 17.984 59.4061 18.008C59.2941 18.032 59.1181 18.176 59.0701 18.24C58.9981 18.336 58.9661 18.432 59.0061 18.488C59.0541 18.56 59.1501 18.728 59.1821 18.792C59.2701 18.968 59.2701 19.04 59.2941 19.24C59.3261 19.528 59.3421 20.888 59.3021 21.392C59.3021 21.44 59.2941 21.48 59.2861 21.52L58.6301 21.544C58.6781 21.216 58.7261 20.752 58.7341 20.64C58.7421 20.512 58.6461 20.4 58.5661 20.336C58.4221 20.224 58.1261 20.104 57.8941 20.136C57.7901 20.152 57.7021 20.216 57.6461 20.272C57.5181 20.4 57.6381 20.456 57.7101 20.648C57.7341 20.704 57.7341 20.832 57.7341 20.928C57.7341 21.016 57.7181 21.328 57.7021 21.56C57.5181 21.568 57.3421 21.568 57.1741 21.568C57.1581 21.2 57.1181 20.656 57.0941 20.544C57.0621 20.416 56.9421 20.312 56.8461 20.296C56.6861 20.264 56.2861 20.272 56.1341 20.304C56.0141 20.328 55.9501 20.432 55.9341 20.504C55.9101 20.608 55.9261 20.696 55.9741 20.72C56.0941 20.784 56.1821 20.872 56.2861 21.144C56.3101 21.208 56.3181 21.408 56.3181 21.576C56.0621 21.584 55.6541 21.64 55.5181 21.664C55.3501 21.696 55.2381 21.824 55.2861 21.936C55.3581 22.112 55.4541 22.28 55.5581 22.448C55.6221 22.552 55.7661 22.576 55.8621 22.576C56.6061 22.552 57.6301 22.496 58.4541 22.44C58.7181 22.424 58.9741 22.376 59.2301 22.296V22.312C59.2541 22.648 59.4941 23.136 59.6381 23.44C59.9821 23.28 60.3501 22.608 60.3981 22.048C60.3981 22.016 60.4061 21.976 60.4061 21.944L60.6381 22.008C60.7901 22.048 60.9581 22.048 61.0301 22.024C61.2461 21.952 61.5661 21.784 61.5821 21.704C61.5981 21.608 61.5021 21.416 61.4381 21.32ZM55.5421 19.736C55.6381 19.808 55.8141 19.912 55.9101 19.952C56.0701 20.016 56.2861 20.056 56.4701 20.048C56.7421 20.04 57.9101 19.984 58.2541 19.984C58.5901 19.984 58.6861 19.888 58.8541 19.76C59.0301 19.624 59.1021 19.52 59.1021 19.432C59.1021 19.344 58.9501 19.216 58.8221 19.136C58.7261 19.072 58.5981 19.008 58.4221 19.032C58.1581 19.064 56.8061 19.152 56.5181 19.168C56.3421 19.176 56.2541 19.152 56.1421 19.12C55.9581 19.072 55.7981 18.976 55.7181 19.096C55.6621 19.176 55.5421 19.408 55.5101 19.512C55.4781 19.632 55.4941 19.704 55.5421 19.736ZM60.6461 23.888C60.4941 23.768 60.4621 23.784 60.1821 23.872C60.0541 23.912 59.8141 23.936 59.6461 23.936C59.3341 23.936 58.8781 23.928 58.6861 23.904C58.4701 23.88 58.3821 23.864 58.1741 23.704C57.8941 23.488 57.5981 23.2 57.3501 22.928C57.1821 22.744 57.0541 22.736 56.6861 22.872C56.5181 22.936 56.3501 23.024 56.2701 23.12C56.1741 23.24 56.1661 23.44 56.2781 23.552C56.4221 23.688 56.6381 23.768 56.7581 23.88C56.9261 24.032 57.2301 24.312 57.5101 24.6C57.8061 24.912 57.9421 24.976 58.3741 24.992C58.6541 25 59.5021 25.024 59.7341 25.024L60.8701 24.672C61.0381 24.544 61.1181 24.448 60.9901 24.232C60.9181 24.112 60.7581 23.976 60.6461 23.888ZM67.5696 23.176C67.5536 22.44 67.5216 20.4 67.5216 19.272C67.5216 18.68 67.4096 18.464 66.9056 18.088C66.6336 17.888 66.5456 17.928 66.2656 18.152C65.9936 18.376 65.9056 18.472 66.0976 18.696C66.2416 18.864 66.3616 19.032 66.3696 19.448C66.3856 20.448 66.3536 22.6 66.3216 23.68C66.3056 24.232 66.5776 24.848 66.9056 25.28C66.9296 25.024 67.2176 24.6 67.3696 24.24C67.4976 23.936 67.5776 23.52 67.5696 23.176ZM64.3936 19.496C64.2576 19.416 63.9696 19.288 63.7856 19.312C63.6016 19.328 63.4016 19.36 63.2896 19.584C62.5856 19.936 61.9936 20.824 61.9936 21.704C61.9936 22.664 62.8016 23.464 63.6416 23.48C63.8336 23.488 64.0016 23.416 64.1136 23.312C64.1856 23.304 64.2736 23.28 64.3616 23.232C65.0416 22.976 65.6256 22.2 65.5296 21.304C65.4416 20.496 65.0416 19.864 64.3936 19.496ZM63.7776 22.4C63.4896 22.328 63.1136 22.088 63.1136 21.584C63.1136 21.112 63.3856 20.52 63.8016 20.296C64.1776 20.504 64.3856 20.936 64.4256 21.408C64.4656 21.856 64.2496 22.208 63.7776 22.4ZM74.5386 21.784C74.4266 21.688 74.2666 21.584 74.0506 21.64C73.9786 21.664 73.8746 21.68 73.7786 21.696C73.7626 20.864 73.7546 19.92 73.7546 19.272C73.7546 18.68 73.6426 18.464 73.1386 18.088C72.8666 17.888 72.7786 17.928 72.4986 18.152C72.2266 18.376 72.1386 18.472 72.3306 18.696C72.4746 18.864 72.5946 19.032 72.6026 19.448C72.6186 20.088 72.6026 21.208 72.5866 22.208C72.2346 22.168 71.5626 22.168 71.1866 22.192C70.8586 22.216 70.4506 22.232 70.0666 22.248C70.0746 21.928 70.0746 21.336 70.0666 20.864C70.4586 20.872 70.8826 20.872 71.3626 20.816C71.5626 20.792 71.8826 20.624 71.9626 20.424C71.8826 20.304 71.7786 20.136 71.6986 20.024C71.4906 19.736 71.2346 19.648 70.9306 19.688C70.6746 19.72 70.3866 19.768 70.0746 19.8C69.7866 19.832 69.4026 19.856 69.1626 19.784C69.0346 19.744 68.9226 19.72 68.8266 19.8C68.7386 19.872 68.6506 19.968 68.5786 20.064C68.5146 20.144 68.5466 20.24 68.5946 20.32C68.6586 20.424 68.7866 20.624 68.8186 20.704C68.8186 20.712 68.8266 20.72 68.8266 20.72C68.8506 21.176 68.8746 21.776 68.8746 22.384C68.7786 22.464 68.7386 22.608 68.7466 22.808C68.7626 23.096 68.9066 23.168 69.1306 23.264C69.2986 23.336 69.5066 23.376 69.7786 23.376C70.2106 23.376 70.9866 23.336 71.3786 23.288C71.8186 23.232 72.2826 23.04 72.5706 22.856L72.5546 23.68C72.5386 24.232 72.8106 24.848 73.1386 25.28C73.1626 25.024 73.4506 24.6 73.6026 24.24C73.7306 23.936 73.8106 23.52 73.8026 23.176C73.8026 23.088 73.7946 22.984 73.7946 22.864C73.9706 22.864 74.1546 22.864 74.2906 22.856C74.6426 22.84 75.0026 22.648 75.0026 22.4C75.0026 22.248 74.7146 21.936 74.5386 21.784ZM75.7928 24.888C76.2088 24.888 76.5128 24.536 76.5128 24.272C76.5128 23.92 76.1848 23.648 75.8328 23.648C75.4728 23.648 75.2408 23.816 75.2408 24.176C75.2408 24.608 75.4408 24.888 75.7928 24.888Z" fill="white"/>
</svg>
